<svg width="277" height="152" viewBox="0 0 277 152" fill="none" xmlns="http://www.w3.org/2000/svg">
<path d="M30.3645 117.643C30.3645 119.274 30.2566 120.665 30.0407 121.817C29.8488 122.968 29.573 123.903 29.2132 124.623C28.8535 125.342 28.4097 125.87 27.8821 126.206C27.3784 126.542 26.8268 126.71 26.2271 126.71C25.7714 126.71 25.2678 126.554 24.7161 126.242C24.1645 125.93 23.6368 125.546 23.1331 125.091C22.6534 124.635 22.2457 124.167 21.9099 123.688C21.5981 123.208 21.4422 122.788 21.4422 122.428C21.4422 122.188 21.4662 122.033 21.5142 121.961C21.5861 121.913 21.6701 121.889 21.766 121.889C21.8859 121.913 22.0178 121.949 22.1618 121.997C22.3296 122.045 22.5095 122.069 22.7014 122.069C23.373 122.069 23.8527 121.649 24.1405 120.809C24.4523 119.946 24.6082 118.579 24.6082 116.708V105.123H20.7946C20.4109 105.123 20.0511 105.004 19.7153 104.764C19.4035 104.524 19.1277 104.224 18.8879 103.864C18.648 103.505 18.4561 103.109 18.3122 102.677C18.1923 102.245 18.1323 101.838 18.1323 101.454C18.1323 101.046 18.2163 100.698 18.3842 100.41C18.5761 100.123 18.8639 99.9788 19.2476 99.9788H24.6082V76.0182C22.0178 76.1861 19.6554 76.5698 17.5207 77.1694C15.3861 77.7691 13.5513 78.6805 12.0163 79.9037C10.4813 81.1269 9.28203 82.7219 8.41859 84.6886C7.57913 86.6314 7.1594 89.0538 7.1594 91.9559C7.1594 93.2271 7.27932 94.3784 7.51917 95.4097C7.783 96.4171 8.11878 97.3285 8.52652 98.144C8.93426 98.9594 9.37797 99.679 9.85766 100.303C10.3613 100.926 10.853 101.478 11.3327 101.958C11.7405 101.838 12.0283 101.886 12.1962 102.101C12.3641 102.317 12.448 102.617 12.448 103.001C12.448 103.481 12.3401 103.984 12.1242 104.512C11.9323 105.016 11.6685 105.483 11.3327 105.915C10.9969 106.323 10.6132 106.67 10.1815 106.958C9.77372 107.222 9.35399 107.354 8.92227 107.354C8.73039 107.354 8.53851 107.33 8.34664 107.282C8.17874 107.234 7.99886 107.126 7.80698 106.958C7.27932 106.575 6.64373 105.951 5.90021 105.087C5.15669 104.2 4.44914 103.109 3.77757 101.814C3.106 100.518 2.53037 99.0434 2.05068 97.3884C1.57099 95.7095 1.33114 93.8987 1.33114 91.9559C1.33114 84.8805 3.5857 79.4839 8.0948 75.7663C12.6279 72.0487 19.3076 70.1899 28.1339 70.1899C28.8055 70.1899 29.6449 70.2019 30.6523 70.2259C31.6836 70.2259 32.7749 70.2259 33.9262 70.2259C35.0775 70.2259 36.2407 70.2379 37.416 70.2619C38.6152 70.2859 39.7185 70.2979 40.7258 70.2979C41.7572 70.2979 42.6326 70.3098 43.3521 70.3338C44.0957 70.3338 44.5993 70.3338 44.8632 70.3338C45.2229 70.3338 45.5227 70.3098 45.7626 70.2619C46.0024 70.1899 46.1943 70.118 46.3382 70.046C46.5061 69.9741 46.626 69.9141 46.698 69.8661C46.7939 69.7942 46.8779 69.7582 46.9498 69.7582C47.0697 69.7582 47.1897 69.8421 47.3096 70.01C47.4295 70.1539 47.5374 70.3458 47.6334 70.5857C47.7293 70.8015 47.8013 71.0534 47.8492 71.3412C47.9212 71.629 47.9572 71.9168 47.9572 72.2046C47.9572 72.6363 47.8852 73.0921 47.7413 73.5717C47.6214 74.0275 47.4175 74.4472 47.1297 74.8309C46.8419 75.1907 46.4821 75.4905 46.0504 75.7304C45.6427 75.9702 45.151 76.0901 44.5753 76.0901C44.3595 76.0901 43.9637 76.0901 43.3881 76.0901C42.8125 76.0661 42.1169 76.0542 41.3015 76.0542C40.51 76.0302 39.6345 76.0182 38.6751 76.0182C37.7158 75.9942 36.7444 75.9822 35.761 75.9822C34.8016 75.9582 33.8542 75.9462 32.9188 75.9462C31.9834 75.9222 31.132 75.8983 30.3645 75.8743V99.9788H39.5746C39.9583 99.691 40.2461 99.619 40.438 99.7629C40.6299 99.9068 40.7378 100.171 40.7618 100.554C40.8098 100.938 40.7858 101.394 40.6898 101.922C40.6179 102.449 40.486 102.953 40.2941 103.433C40.1262 103.888 39.9223 104.284 39.6825 104.62C39.4426 104.956 39.1788 105.123 38.891 105.123H30.3645V117.643ZM60.8729 123.831C60.0094 123.831 59.122 123.7 58.2106 123.436C57.3232 123.172 56.5077 122.716 55.7642 122.069C55.0446 121.421 54.445 120.57 53.9653 119.514C53.5096 118.435 53.2818 117.08 53.2818 115.449C53.2818 113.074 53.5936 110.568 54.2172 107.93C54.8647 105.267 55.7881 102.341 56.9874 99.1513H51.375H50.5475C50.5235 99.8708 50.4756 100.782 50.4036 101.886C50.3556 102.989 50.2597 104.164 50.1158 105.411C49.9719 106.658 49.78 107.918 49.5402 109.189C49.3243 110.46 49.0485 111.635 48.7127 112.715C48.4728 113.482 48.0891 113.926 47.5614 114.046C47.0578 114.166 46.5541 114.082 46.0504 113.794C45.5467 113.482 45.139 113.038 44.8272 112.463C44.5154 111.887 44.4434 111.288 44.6113 110.664C44.8032 109.92 44.9711 109.021 45.115 107.966C45.2589 106.886 45.3668 105.759 45.4388 104.584C45.5347 103.385 45.6067 102.197 45.6547 101.022C45.7026 99.8229 45.7386 98.7556 45.7626 97.8202C44.8512 97.3165 44.0957 96.6809 43.496 95.9134C42.8964 95.1219 42.5966 94.1865 42.5966 93.1072C42.5966 92.6035 42.6926 92.1478 42.8844 91.7401C43.1003 91.3083 43.3761 90.9486 43.7119 90.6608C44.0477 90.349 44.4434 90.1211 44.8991 89.9772C45.3548 89.8093 45.8225 89.7254 46.3022 89.7254C46.734 89.7254 47.1777 89.7853 47.6334 89.9052C48.1131 90.0252 48.5568 90.241 48.9645 90.5528C49.3962 90.8646 49.78 91.2724 50.1158 91.776C50.4516 92.2797 50.7274 92.9033 50.9433 93.6468C51.5429 93.7188 52.0465 93.7788 52.4543 93.8267C52.886 93.8507 53.2458 93.8747 53.5336 93.8987C53.8214 93.9227 54.0613 93.9347 54.2531 93.9347C54.445 93.9347 54.6369 93.9347 54.8288 93.9347H58.6783C58.8941 93.9347 59.2059 94.0666 59.6137 94.3304C60.0454 94.5942 60.4651 94.942 60.8729 95.3737C61.2806 95.7815 61.6164 96.2252 61.8802 96.7049C62.168 97.1846 62.276 97.6403 62.204 98.072C62.204 98.2159 62.1201 98.5637 61.9522 99.1153C61.7843 99.667 61.5804 100.363 61.3406 101.202C61.1007 102.041 60.8369 103.013 60.5491 104.116C60.2613 105.195 59.9974 106.335 59.7576 107.534C59.5177 108.733 59.3139 109.98 59.146 111.276C58.9781 112.547 58.8941 113.794 58.8941 115.017C58.8941 115.521 58.9541 116.012 59.074 116.492C59.194 116.972 59.3738 117.404 59.6137 117.787C59.8535 118.147 60.1533 118.435 60.5131 118.651C60.8969 118.867 61.3406 118.975 61.8442 118.975C62.6837 118.975 63.4032 118.711 64.0029 118.183C64.6025 117.655 65.1062 116.996 65.5139 116.204C65.9216 115.413 66.2454 114.561 66.4853 113.65C66.7491 112.715 66.965 111.839 67.1328 111.024C67.2768 110.256 67.5166 109.705 67.8524 109.369C68.1882 109.009 68.5359 108.829 68.8957 108.829C69.1835 108.829 69.4833 108.925 69.7951 109.117C70.1069 109.285 70.3828 109.513 70.6226 109.8C70.8864 110.088 71.0903 110.412 71.2342 110.772C71.4021 111.132 71.4861 111.491 71.4861 111.851C71.4861 111.971 71.4741 112.067 71.4501 112.139C71.4261 112.211 71.4141 112.283 71.4141 112.355C71.0783 113.578 70.6346 114.861 70.083 116.204C69.5553 117.547 68.8717 118.783 68.0323 119.91C67.1928 121.037 66.1855 121.973 65.0102 122.716C63.835 123.46 62.4559 123.831 60.8729 123.831ZM84.4377 100.339C84.4377 101.706 84.1979 103.109 83.7182 104.548C83.2625 105.987 82.5669 107.354 81.6315 108.649C80.7201 109.92 79.5808 111.072 78.2137 112.103C76.8706 113.11 75.3116 113.878 73.5367 114.406C73.7766 115.029 74.0884 115.629 74.4721 116.204C74.8799 116.756 75.3596 117.236 75.9112 117.643C76.4629 118.051 77.0984 118.375 77.818 118.615C78.5615 118.855 79.413 118.975 80.3723 118.975C81.8114 118.975 83.0466 118.711 84.078 118.183C85.1093 117.631 85.9727 116.912 86.6683 116.024C87.3878 115.137 87.9635 114.142 88.3952 113.038C88.8269 111.935 89.1507 110.82 89.3666 109.693C89.5345 108.877 89.8702 108.337 90.3739 108.074C90.9016 107.786 91.4292 107.714 91.9569 107.858C92.5085 108.002 92.9762 108.313 93.36 108.793C93.7677 109.249 93.9356 109.8 93.8637 110.448C93.7677 111.192 93.5998 112.043 93.36 113.002C93.1441 113.962 92.8083 114.933 92.3526 115.917C91.8969 116.9 91.3093 117.871 90.5898 118.831C89.8942 119.766 89.0308 120.606 87.9994 121.349C86.9681 122.093 85.7569 122.692 84.3658 123.148C82.9747 123.604 81.3797 123.831 79.5808 123.831C77.9019 123.831 76.271 123.496 74.688 122.824C73.129 122.177 71.7379 121.241 70.5147 120.018C69.3154 118.771 68.3441 117.248 67.6005 115.449C66.881 113.626 66.5212 111.563 66.5212 109.261C66.5212 106.934 66.845 104.776 67.4926 102.785C68.1402 100.77 68.9917 99.0314 70.047 97.5683C71.1023 96.1053 72.3015 94.966 73.6447 94.1505C74.9878 93.3111 76.3669 92.8913 77.782 92.8913C78.8133 92.8913 79.7367 93.0712 80.5522 93.431C81.3917 93.7908 82.0992 94.3064 82.6749 94.978C83.2505 95.6256 83.6822 96.4051 83.97 97.3165C84.2818 98.2279 84.4377 99.2353 84.4377 100.339ZM72.5654 109.045C72.5654 109.261 72.5773 109.477 72.6013 109.693C72.6253 109.908 72.6373 110.136 72.6373 110.376C73.5487 109.944 74.3762 109.393 75.1197 108.721C75.8632 108.05 76.4988 107.282 77.0265 106.419C77.5542 105.555 77.9619 104.62 78.2497 103.612C78.5375 102.581 78.6814 101.514 78.6814 100.41C78.6814 99.595 78.5375 98.9594 78.2497 98.5037C77.9859 98.048 77.6141 97.8202 77.1344 97.8202C76.5348 97.8202 75.9952 98.024 75.5155 98.4318C75.0598 98.8395 74.652 99.3792 74.2922 100.051C73.9565 100.698 73.6686 101.442 73.4288 102.281C73.2129 103.097 73.0331 103.924 72.8891 104.764C72.7452 105.603 72.6493 106.407 72.6013 107.174C72.5534 107.918 72.5414 108.541 72.5654 109.045ZM106.312 100.339C106.312 101.706 106.072 103.109 105.592 104.548C105.136 105.987 104.441 107.354 103.505 108.649C102.594 109.92 101.455 111.072 100.088 112.103C98.7445 113.11 97.1855 113.878 95.4107 114.406C95.6505 115.029 95.9623 115.629 96.3461 116.204C96.7538 116.756 97.2335 117.236 97.7851 117.643C98.3368 118.051 98.9724 118.375 99.6919 118.615C100.435 118.855 101.287 118.975 102.246 118.975C103.685 118.975 104.921 118.711 105.952 118.183C106.983 117.631 107.847 116.912 108.542 116.024C109.262 115.137 109.837 114.142 110.269 113.038C110.701 111.935 111.025 110.82 111.24 109.693C111.408 108.877 111.744 108.337 112.248 108.074C112.776 107.786 113.303 107.714 113.831 107.858C114.382 108.002 114.85 108.313 115.234 108.793C115.642 109.249 115.81 109.8 115.738 110.448C115.642 111.192 115.474 112.043 115.234 113.002C115.018 113.962 114.682 114.933 114.227 115.917C113.771 116.9 113.183 117.871 112.464 118.831C111.768 119.766 110.905 120.606 109.873 121.349C108.842 122.093 107.631 122.692 106.24 123.148C104.849 123.604 103.254 123.831 101.455 123.831C99.7759 123.831 98.1449 123.496 96.5619 122.824C95.0029 122.177 93.6118 121.241 92.3886 120.018C91.1894 118.771 90.218 117.248 89.4745 115.449C88.755 113.626 88.3952 111.563 88.3952 109.261C88.3952 106.934 88.719 104.776 89.3666 102.785C90.0141 100.77 90.8656 99.0314 91.9209 97.5683C92.9762 96.1053 94.1755 94.966 95.5186 94.1505C96.8617 93.3111 98.2409 92.8913 99.6559 92.8913C100.687 92.8913 101.611 93.0712 102.426 93.431C103.266 93.7908 103.973 94.3064 104.549 94.978C105.124 95.6256 105.556 96.4051 105.844 97.3165C106.156 98.2279 106.312 99.2353 106.312 100.339ZM94.4393 109.045C94.4393 109.261 94.4513 109.477 94.4753 109.693C94.4993 109.908 94.5113 110.136 94.5113 110.376C95.4227 109.944 96.2501 109.393 96.9937 108.721C97.7372 108.05 98.3728 107.282 98.9004 106.419C99.4281 105.555 99.8358 104.62 100.124 103.612C100.411 102.581 100.555 101.514 100.555 100.41C100.555 99.595 100.411 98.9594 100.124 98.5037C99.8598 98.048 99.4881 97.8202 99.0084 97.8202C98.4087 97.8202 97.8691 98.024 97.3894 98.4318C96.9337 98.8395 96.526 99.3792 96.1662 100.051C95.8304 100.698 95.5426 101.442 95.3027 102.281C95.0869 103.097 94.907 103.924 94.7631 104.764C94.6192 105.603 94.5232 106.407 94.4753 107.174C94.4273 107.918 94.4153 108.541 94.4393 109.045Z" fill="white"/>
<path d="M123.545 124.443C121.986 124.443 120.69 124.263 119.659 123.903C118.628 123.568 117.812 123.184 117.213 122.752C116.613 122.32 116.193 121.913 115.953 121.529C115.714 121.121 115.594 120.857 115.594 120.737C115.594 120.306 115.69 119.85 115.882 119.37C116.073 118.867 116.313 118.411 116.601 118.003C116.889 117.571 117.201 117.212 117.536 116.924C117.872 116.636 118.172 116.492 118.436 116.492C118.772 116.492 119.047 116.708 119.263 117.14C119.311 117.188 119.431 117.308 119.623 117.5C119.815 117.691 120.079 117.895 120.415 118.111C120.774 118.303 121.206 118.483 121.71 118.651C122.237 118.819 122.849 118.903 123.545 118.903C125.056 118.903 126.291 118.447 127.25 117.535C128.21 116.6 128.689 115.341 128.689 113.758C128.689 112.655 128.425 111.671 127.898 110.808C127.394 109.944 126.723 109.141 125.883 108.397C125.044 107.654 124.084 106.934 123.005 106.239C121.926 105.519 120.822 104.776 119.695 104.008C118.568 103.241 117.464 102.413 116.385 101.526C115.306 100.638 114.347 99.619 113.507 98.4677C112.668 97.3165 111.984 96.0213 111.456 94.5822C110.953 93.1192 110.701 91.4523 110.701 89.5815C110.701 87.9745 110.977 86.3555 111.528 84.7246C112.08 83.0936 112.835 81.5466 113.795 80.0836C114.778 78.5965 115.929 77.2174 117.249 75.9462C118.568 74.6511 119.995 73.5358 121.53 72.6004C123.065 71.641 124.66 70.8975 126.315 70.3698C127.994 69.8182 129.673 69.5423 131.352 69.5423C132.791 69.5423 134.086 69.7702 135.237 70.2259C136.388 70.6816 137.36 71.3292 138.151 72.1687C138.943 72.9841 139.554 73.9795 139.986 75.1547C140.418 76.306 140.634 77.6012 140.634 79.0402C140.634 80.4074 140.394 81.7505 139.914 83.0696C139.434 84.3888 138.799 85.636 138.007 86.8112C137.216 87.9865 136.316 89.0778 135.309 90.0851C134.326 91.0685 133.306 91.9319 132.251 92.6755C131.22 93.395 130.212 93.9586 129.229 94.3664C128.246 94.7741 127.382 94.978 126.639 94.978C125.991 94.978 125.403 94.8341 124.876 94.5463C124.372 94.2345 123.94 93.8627 123.581 93.431C123.245 92.9753 122.981 92.5076 122.789 92.0279C122.597 91.5242 122.501 91.0805 122.501 90.6967C122.501 90.3849 122.537 90.1811 122.609 90.0851C122.705 89.9892 122.825 89.9532 122.969 89.9772C123.137 89.9772 123.341 90.0132 123.581 90.0851C123.82 90.1331 124.096 90.1571 124.408 90.1571C125.415 90.1571 126.531 89.8093 127.754 89.1138C128.977 88.4182 130.128 87.5308 131.208 86.4515C132.287 85.3722 133.186 84.1849 133.906 82.8898C134.649 81.5946 135.021 80.3354 135.021 79.1122C135.021 77.865 134.709 76.8816 134.086 76.1621C133.486 75.4425 132.455 75.0828 130.992 75.0828C130.08 75.0828 129.085 75.2627 128.006 75.6224C126.95 75.9582 125.883 76.4379 124.804 77.0615C123.724 77.6851 122.681 78.4406 121.674 79.328C120.666 80.2155 119.779 81.1988 119.012 82.2782C118.244 83.3335 117.62 84.4847 117.141 85.7319C116.685 86.9551 116.457 88.2383 116.457 89.5815C116.457 90.9965 116.709 92.2677 117.213 93.395C117.74 94.4983 118.424 95.5057 119.263 96.4171C120.127 97.3285 121.098 98.1679 122.177 98.9354C123.257 99.703 124.36 100.47 125.487 101.238C126.615 101.981 127.718 102.761 128.797 103.576C129.877 104.368 130.836 105.255 131.675 106.239C132.539 107.198 133.222 108.277 133.726 109.477C134.254 110.652 134.518 112.007 134.518 113.542C134.518 115.029 134.23 116.444 133.654 117.787C133.102 119.106 132.335 120.258 131.352 121.241C130.368 122.224 129.205 123.004 127.862 123.58C126.519 124.155 125.08 124.443 123.545 124.443ZM161.86 118.975C162.603 118.975 163.239 118.711 163.767 118.183C164.318 117.655 164.786 116.996 165.17 116.204C165.578 115.413 165.901 114.561 166.141 113.65C166.405 112.715 166.621 111.839 166.789 111.024C166.957 110.256 167.197 109.705 167.508 109.369C167.844 109.009 168.204 108.829 168.588 108.829C168.875 108.829 169.163 108.925 169.451 109.117C169.763 109.285 170.039 109.513 170.279 109.8C170.542 110.088 170.746 110.412 170.89 110.772C171.058 111.132 171.142 111.491 171.142 111.851C171.142 111.899 171.142 111.959 171.142 112.031C171.142 112.103 171.118 112.211 171.07 112.355C170.758 113.578 170.327 114.861 169.775 116.204C169.247 117.547 168.564 118.783 167.724 119.91C166.885 121.037 165.865 121.973 164.666 122.716C163.491 123.46 162.112 123.831 160.529 123.831C159.234 123.831 158.106 123.556 157.147 123.004C156.188 122.452 155.432 121.721 154.88 120.809C154.137 121.649 153.237 122.356 152.182 122.932C151.151 123.532 149.94 123.831 148.549 123.831C147.109 123.831 145.838 123.544 144.735 122.968C143.656 122.392 142.744 121.613 142.001 120.63C141.257 119.622 140.694 118.447 140.31 117.104C139.95 115.737 139.77 114.274 139.77 112.715C139.77 109.645 140.262 106.886 141.245 104.44C142.229 101.993 143.536 99.9188 145.167 98.2159C146.798 96.489 148.656 95.1699 150.743 94.2585C152.854 93.347 155.036 92.8913 157.291 92.8913C158.298 92.8913 159.114 93.1672 159.737 93.7188C160.361 94.2704 160.673 95.026 160.673 95.9853C160.673 96.6089 160.601 97.0527 160.457 97.3165C160.337 97.5563 160.097 97.6763 159.737 97.6763C159.402 97.6763 159.054 97.6523 158.694 97.6043C158.334 97.5563 157.962 97.5323 157.579 97.5323C156.188 97.5323 154.773 97.8441 153.333 98.4677C151.894 99.0674 150.587 100.003 149.412 101.274C148.261 102.521 147.313 104.116 146.57 106.059C145.826 107.978 145.455 110.268 145.455 112.93C145.455 114.873 145.826 116.372 146.57 117.428C147.313 118.459 148.333 118.975 149.628 118.975C150.635 118.975 151.475 118.603 152.146 117.859C152.818 117.092 153.357 116.192 153.765 115.161V103.792C153.765 103.433 153.741 103.133 153.693 102.893C153.669 102.653 153.633 102.449 153.585 102.281C153.561 102.113 153.537 101.969 153.513 101.85C153.489 101.706 153.477 101.574 153.477 101.454C153.477 101.07 153.657 100.77 154.017 100.554C154.401 100.315 154.856 100.195 155.384 100.195C156.607 100.195 157.579 100.518 158.298 101.166C159.018 101.79 159.378 102.545 159.378 103.433V115.593C159.378 116 159.426 116.408 159.521 116.816C159.617 117.2 159.761 117.559 159.953 117.895C160.145 118.207 160.397 118.471 160.709 118.687C161.044 118.879 161.428 118.975 161.86 118.975ZM211.112 112.355C210.777 113.578 210.333 114.861 209.781 116.204C209.253 117.547 208.57 118.783 207.73 119.91C206.891 121.037 205.884 121.973 204.708 122.716C203.533 123.46 202.154 123.831 200.571 123.831C199.588 123.831 198.712 123.64 197.945 123.256C197.201 122.896 196.554 122.404 196.002 121.781C195.474 121.157 195.067 120.426 194.779 119.586C194.515 118.747 194.383 117.859 194.383 116.924V101.958C194.383 101.382 194.371 100.842 194.347 100.339C194.323 99.8349 194.263 99.3912 194.167 99.0074C194.071 98.6236 193.927 98.3238 193.735 98.108C193.568 97.8681 193.328 97.7482 193.016 97.7482C192.512 97.7482 191.901 98.108 191.181 98.8275C190.462 99.5471 189.766 100.482 189.094 101.634C188.423 102.785 187.823 104.092 187.296 105.555C186.768 106.994 186.456 108.445 186.36 109.908V120.665C186.36 121.025 186.348 121.397 186.324 121.781C186.324 122.141 186.252 122.464 186.108 122.752C185.988 123.064 185.785 123.316 185.497 123.508C185.233 123.724 184.837 123.831 184.31 123.831C183.95 123.831 183.554 123.783 183.122 123.688C182.715 123.616 182.331 123.46 181.971 123.22C181.635 123.004 181.347 122.68 181.108 122.248C180.892 121.841 180.784 121.289 180.784 120.594V101.958C180.784 101.382 180.76 100.842 180.712 100.339C180.688 99.8349 180.628 99.3912 180.532 99.0074C180.436 98.6236 180.292 98.3238 180.1 98.108C179.932 97.8681 179.692 97.7482 179.381 97.7482C178.877 97.7482 178.265 98.108 177.546 98.8275C176.85 99.5471 176.155 100.482 175.459 101.634C174.788 102.785 174.188 104.092 173.66 105.555C173.157 106.994 172.845 108.445 172.725 109.908V120.665C172.725 121.025 172.713 121.397 172.689 121.781C172.689 122.141 172.617 122.464 172.473 122.752C172.353 123.064 172.149 123.316 171.862 123.508C171.598 123.724 171.202 123.831 170.674 123.831C170.315 123.831 169.919 123.783 169.487 123.688C169.079 123.616 168.696 123.46 168.336 123.22C168 123.004 167.712 122.68 167.472 122.248C167.256 121.841 167.149 121.289 167.149 120.594V97.2445C167.149 96.549 167.089 96.0453 166.969 95.7335C166.873 95.4217 166.825 95.1339 166.825 94.8701C166.825 94.5103 167.017 94.2225 167.4 94.0066C167.784 93.7668 168.24 93.6468 168.768 93.6468C169.991 93.6468 170.95 93.9706 171.646 94.6182C172.365 95.2418 172.725 95.9973 172.725 96.8848V99.9788C173.205 98.9714 173.72 98.036 174.272 97.1726C174.848 96.3091 175.459 95.5656 176.107 94.942C176.754 94.2944 177.438 93.7908 178.157 93.431C178.901 93.0712 179.692 92.8913 180.532 92.8913C181.635 92.8913 182.547 93.0952 183.266 93.5029C184.01 93.9107 184.597 94.4503 185.029 95.1219C185.485 95.7935 185.809 96.549 186 97.3884C186.192 98.2039 186.312 99.0194 186.36 99.8349C186.816 98.8515 187.32 97.9401 187.871 97.1006C188.423 96.2612 189.023 95.5296 189.67 94.906C190.318 94.2824 191.001 93.7908 191.721 93.431C192.464 93.0712 193.256 92.8913 194.095 92.8913C195.294 92.8913 196.278 93.1192 197.045 93.5749C197.813 94.0306 198.412 94.6182 198.844 95.3378C199.276 96.0573 199.576 96.8608 199.744 97.7482C199.912 98.6356 199.995 99.4991 199.995 100.339V115.593C199.995 115.761 200.007 116.036 200.031 116.42C200.055 116.78 200.127 117.152 200.247 117.535C200.367 117.919 200.547 118.255 200.787 118.543C201.051 118.831 201.423 118.975 201.902 118.975C202.646 118.975 203.281 118.711 203.809 118.183C204.361 117.655 204.828 116.996 205.212 116.204C205.62 115.413 205.956 114.561 206.219 113.65C206.483 112.715 206.699 111.839 206.867 111.024C207.011 110.256 207.239 109.705 207.551 109.369C207.886 109.009 208.246 108.829 208.63 108.829C208.918 108.829 209.206 108.925 209.493 109.117C209.805 109.285 210.081 109.513 210.321 109.8C210.585 110.088 210.789 110.412 210.932 110.772C211.1 111.132 211.184 111.491 211.184 111.851C211.184 111.899 211.184 111.959 211.184 112.031C211.184 112.103 211.16 112.211 211.112 112.355ZM216.293 124.587C215.382 124.587 214.638 124.479 214.062 124.263C213.487 124.071 213.043 123.807 212.731 123.472V147.432C212.731 148.104 212.599 148.643 212.336 149.051C212.072 149.483 211.736 149.819 211.328 150.059C210.944 150.298 210.525 150.454 210.069 150.526C209.613 150.622 209.206 150.67 208.846 150.67C208.102 150.67 207.635 150.478 207.443 150.095C207.251 149.711 207.155 149.243 207.155 148.691V97.2445C207.155 96.7169 207.107 96.2971 207.011 95.9853C206.939 95.6735 206.855 95.4337 206.759 95.2658C206.687 95.0739 206.603 94.93 206.507 94.8341C206.435 94.7142 206.399 94.5822 206.399 94.4383C206.399 94.3184 206.471 94.2105 206.615 94.1145C206.759 94.0186 206.951 93.9347 207.191 93.8627C207.431 93.7908 207.683 93.7428 207.946 93.7188C208.234 93.6708 208.51 93.6468 208.774 93.6468C209.949 93.6468 210.884 93.9706 211.58 94.6182C212.3 95.2418 212.683 95.9733 212.731 96.8128C213.499 95.6855 214.422 94.7501 215.501 94.0066C216.581 93.2631 217.9 92.8913 219.459 92.8913C220.898 92.8913 222.145 93.2271 223.201 93.8987C224.28 94.5703 225.167 95.4937 225.863 96.6689C226.582 97.8202 227.11 99.1873 227.446 100.77C227.806 102.353 227.985 104.056 227.985 105.879C227.985 107.942 227.806 109.92 227.446 111.815C227.086 113.686 226.63 115.293 226.079 116.636C227.302 116.564 228.309 116.396 229.101 116.132C229.892 115.869 230.552 115.509 231.079 115.053C231.631 114.573 232.099 113.998 232.483 113.326C232.89 112.655 233.31 111.887 233.742 111.024C234.078 110.328 234.353 109.824 234.569 109.513C234.809 109.201 235.097 109.045 235.433 109.045C235.744 109.045 236.056 109.141 236.368 109.333C236.704 109.525 236.992 109.764 237.232 110.052C237.495 110.34 237.699 110.652 237.843 110.988C238.011 111.299 238.095 111.587 238.095 111.851C238.095 112.691 237.807 113.65 237.232 114.729C236.656 115.809 235.768 116.828 234.569 117.787C233.394 118.747 231.895 119.562 230.072 120.234C228.273 120.881 226.151 121.205 223.704 121.205C222.697 122.284 221.534 123.112 220.214 123.688C218.895 124.287 217.588 124.587 216.293 124.587ZM217.588 97.8202C217.06 97.8202 216.545 97.9761 216.041 98.2879C215.561 98.5997 215.106 99.0314 214.674 99.583C214.242 100.111 213.859 100.758 213.523 101.526C213.211 102.293 212.947 103.121 212.731 104.008V119.946C213.259 119.178 214.122 118.591 215.322 118.183C216.521 117.775 217.972 117.5 219.675 117.356C220.107 116.708 220.478 115.941 220.79 115.053C221.126 114.142 221.402 113.206 221.618 112.247C221.833 111.288 221.989 110.352 222.085 109.441C222.205 108.529 222.265 107.726 222.265 107.03C222.265 105.351 222.133 103.924 221.869 102.749C221.63 101.574 221.294 100.626 220.862 99.9068C220.43 99.1633 219.927 98.6356 219.351 98.3238C218.799 97.9881 218.212 97.8202 217.588 97.8202ZM239.354 99.9788C239.618 99.4751 239.87 98.8035 240.11 97.9641C240.374 97.1006 240.613 96.1532 240.829 95.1219C241.069 94.0906 241.285 93.0113 241.477 91.884C241.669 90.7567 241.837 89.6534 241.98 88.5741C242.124 87.4948 242.232 86.4874 242.304 85.552C242.4 84.5927 242.448 83.7772 242.448 83.1056C242.448 80.6592 242.268 78.8723 241.909 77.7451C241.549 76.5938 241.069 76.0182 240.469 76.0182C240.278 76.0182 240.11 76.1141 239.966 76.306C239.822 76.4979 239.702 76.7497 239.606 77.0615C239.51 77.3493 239.438 77.6731 239.39 78.0329C239.366 78.3687 239.354 78.6805 239.354 78.9683V99.9788ZM249.823 111.096C249.967 110.376 250.183 109.86 250.471 109.549C250.783 109.213 251.107 109.033 251.442 109.009C251.802 108.961 252.162 109.045 252.522 109.261C252.881 109.453 253.193 109.717 253.457 110.052C253.721 110.388 253.913 110.772 254.033 111.204C254.177 111.611 254.201 112.019 254.105 112.427C253.769 113.41 253.289 114.561 252.666 115.881C252.042 117.2 251.251 118.447 250.291 119.622C249.332 120.797 248.204 121.793 246.909 122.608C245.614 123.424 244.127 123.831 242.448 123.831C241.033 123.831 239.786 123.592 238.707 123.112C237.627 122.656 236.716 122.009 235.972 121.169C235.253 120.306 234.701 119.286 234.317 118.111C233.958 116.912 233.778 115.581 233.778 114.118V80.5872C233.778 79.2201 233.946 77.9609 234.281 76.8097C234.641 75.6344 235.121 74.6391 235.72 73.8236C236.344 72.9841 237.064 72.3365 237.879 71.8808C238.695 71.4011 239.558 71.1613 240.469 71.1613C241.549 71.1613 242.46 71.3652 243.204 71.7729C243.947 72.1567 244.559 72.6723 245.039 73.3199C245.518 73.9675 245.89 74.711 246.154 75.5505C246.442 76.3899 246.645 77.2534 246.765 78.1408C246.885 79.0043 246.957 79.8677 246.981 80.7311C247.005 81.5706 247.017 82.3381 247.017 83.0337C247.017 84.8325 246.849 86.7273 246.514 88.718C246.178 90.6847 245.746 92.6275 245.218 94.5463C244.715 96.465 244.151 98.3118 243.527 100.087C242.928 101.838 242.34 103.397 241.765 104.764C241.213 106.131 240.709 107.246 240.254 108.11C239.822 108.973 239.522 109.477 239.354 109.621V113.902C239.354 115.389 239.666 116.612 240.29 117.571C240.913 118.507 241.909 118.975 243.276 118.975C244.115 118.975 244.895 118.723 245.614 118.219C246.358 117.691 247.005 117.044 247.557 116.276C248.133 115.485 248.612 114.633 248.996 113.722C249.38 112.787 249.656 111.911 249.823 111.096ZM266.984 100.339C266.984 101.706 266.745 103.109 266.265 104.548C265.809 105.987 265.114 107.354 264.178 108.649C263.267 109.92 262.128 111.072 260.76 112.103C259.417 113.11 257.858 113.878 256.083 114.406C256.323 115.029 256.635 115.629 257.019 116.204C257.427 116.756 257.906 117.236 258.458 117.643C259.01 118.051 259.645 118.375 260.365 118.615C261.108 118.855 261.96 118.975 262.919 118.975C264.358 118.975 265.593 118.711 266.625 118.183C267.656 117.631 268.519 116.912 269.215 116.024C269.934 115.137 270.51 114.142 270.942 113.038C271.374 111.935 271.697 110.82 271.913 109.693C272.081 108.877 272.417 108.337 272.921 108.074C273.448 107.786 273.976 107.714 274.504 107.858C275.055 108.002 275.523 108.313 275.907 108.793C276.314 109.249 276.482 109.8 276.41 110.448C276.314 111.192 276.146 112.043 275.907 113.002C275.691 113.962 275.355 114.933 274.899 115.917C274.444 116.9 273.856 117.871 273.136 118.831C272.441 119.766 271.577 120.606 270.546 121.349C269.515 122.093 268.304 122.692 266.912 123.148C265.521 123.604 263.926 123.831 262.128 123.831C260.449 123.831 258.818 123.496 257.235 122.824C255.676 122.177 254.285 121.241 253.061 120.018C251.862 118.771 250.891 117.248 250.147 115.449C249.428 113.626 249.068 111.563 249.068 109.261C249.068 106.934 249.392 104.776 250.039 102.785C250.687 100.77 251.538 99.0314 252.594 97.5683C253.649 96.1053 254.848 94.966 256.191 94.1505C257.534 93.3111 258.914 92.8913 260.329 92.8913C261.36 92.8913 262.283 93.0712 263.099 93.431C263.938 93.7908 264.646 94.3064 265.222 94.978C265.797 95.6256 266.229 96.4051 266.517 97.3165C266.828 98.2279 266.984 99.2353 266.984 100.339ZM255.112 109.045C255.112 109.261 255.124 109.477 255.148 109.693C255.172 109.908 255.184 110.136 255.184 110.376C256.095 109.944 256.923 109.393 257.666 108.721C258.41 108.05 259.045 107.282 259.573 106.419C260.101 105.555 260.509 104.62 260.796 103.612C261.084 102.581 261.228 101.514 261.228 100.41C261.228 99.595 261.084 98.9594 260.796 98.5037C260.533 98.048 260.161 97.8202 259.681 97.8202C259.081 97.8202 258.542 98.024 258.062 98.4318C257.606 98.8395 257.199 99.3792 256.839 100.051C256.503 100.698 256.215 101.442 255.975 102.281C255.76 103.097 255.58 103.924 255.436 104.764C255.292 105.603 255.196 106.407 255.148 107.174C255.1 107.918 255.088 108.541 255.112 109.045Z" fill="#CD8C2A"/>
<g clip-path="url(#clip0_207_247)">
<path fill-rule="evenodd" clip-rule="evenodd" d="M107.26 36.4082C107.26 36.868 107.443 37.309 107.768 37.6341C108.093 37.9593 108.534 38.1419 108.994 38.1419H122.864C123.324 38.1419 123.765 37.9593 124.09 37.6341C124.415 37.309 124.598 36.868 124.598 36.4082C124.598 35.9484 124.415 35.5074 124.09 35.1823C123.765 34.8571 123.324 34.6745 122.864 34.6745H117.663V5.20102C117.663 4.7412 117.48 4.30022 117.155 3.97508C116.83 3.64995 116.389 3.46729 115.929 3.46729C115.469 3.46729 115.028 3.64995 114.703 3.97508C114.378 4.30022 114.195 4.7412 114.195 5.20102V34.6745H108.994C108.534 34.6745 108.093 34.8571 107.768 35.1823C107.443 35.5074 107.26 35.9484 107.26 36.4082ZM115.929 41.6094C115.469 41.6094 115.028 41.7921 114.703 42.1172C114.378 42.4423 114.195 42.8833 114.195 43.3431V50.2781C114.195 50.7379 114.378 51.1789 114.703 51.504C115.028 51.8291 115.469 52.0118 115.929 52.0118C116.389 52.0118 116.83 51.8291 117.155 51.504C117.48 51.1789 117.663 50.7379 117.663 50.2781V43.3431C117.663 42.8833 117.48 42.4423 117.155 42.1172C116.83 41.7921 116.389 41.6094 115.929 41.6094ZM126.331 19.0709C126.331 19.5307 126.514 19.9717 126.839 20.2968C127.164 20.622 127.605 20.8046 128.065 20.8046H133.266V50.2781C133.266 50.7379 133.449 51.1789 133.774 51.504C134.099 51.8291 134.54 52.0118 135 52.0118C135.46 52.0118 135.901 51.8291 136.226 51.504C136.551 51.1789 136.734 50.7379 136.734 50.2781V20.8046H141.935C142.395 20.8046 142.836 20.622 143.161 20.2968C143.486 19.9717 143.669 19.5307 143.669 19.0709C143.669 18.6111 143.486 18.1701 143.161 17.8449C142.836 17.5198 142.395 17.3371 141.935 17.3371H128.065C127.605 17.3371 127.164 17.5198 126.839 17.8449C126.514 18.1701 126.331 18.6111 126.331 19.0709ZM135 3.46729C134.54 3.46729 134.099 3.64995 133.774 3.97508C133.449 4.30022 133.266 4.7412 133.266 5.20102V12.136C133.266 12.5958 133.449 13.0367 133.774 13.3619C134.099 13.687 134.54 13.8697 135 13.8697C135.46 13.8697 135.901 13.687 136.226 13.3619C136.551 13.0367 136.734 12.5958 136.734 12.136V5.20102C136.734 4.7412 136.551 4.30022 136.226 3.97508C135.901 3.64995 135.46 3.46729 135 3.46729ZM145.402 36.4082C145.402 36.868 145.585 37.309 145.91 37.6341C146.235 37.9593 146.676 38.1419 147.136 38.1419H161.006C161.466 38.1419 161.907 37.9593 162.232 37.6341C162.557 37.309 162.74 36.868 162.74 36.4082C162.74 35.9484 162.557 35.5074 162.232 35.1823C161.907 34.8571 161.466 34.6745 161.006 34.6745H155.805V5.20102C155.805 4.7412 155.622 4.30022 155.297 3.97508C154.972 3.64995 154.531 3.46729 154.071 3.46729C153.611 3.46729 153.17 3.64995 152.845 3.97508C152.52 4.30022 152.337 4.7412 152.337 5.20102V34.6745H147.136C146.676 34.6745 146.235 34.8571 145.91 35.1823C145.585 35.5074 145.402 35.9484 145.402 36.4082ZM154.071 41.6094C153.611 41.6094 153.17 41.7921 152.845 42.1172C152.52 42.4423 152.337 42.8833 152.337 43.3431V50.2781C152.337 50.7379 152.52 51.1789 152.845 51.504C153.17 51.8291 153.611 52.0118 154.071 52.0118C154.531 52.0118 154.972 51.8291 155.297 51.504C155.622 51.1789 155.805 50.7379 155.805 50.2781V43.3431C155.805 42.8833 155.622 42.4423 155.297 42.1172C154.972 41.7921 154.531 41.6094 154.071 41.6094Z" fill="white"/>
</g>
<defs>
<clipPath id="clip0_207_247">
<rect width="55.4795" height="55.4795" fill="white" transform="translate(107.26)"/>
</clipPath>
</defs>
</svg>
