<svg width="1440" height="1024" viewBox="0 0 1440 1024" fill="none" xmlns="http://www.w3.org/2000/svg">
<g clip-path="url(#clip0_215_5)">
<rect width="1440" height="1024" fill="#1A1C2B"/>
<circle cx="-47.2006" cy="1518.75" r="500.365" transform="rotate(-45 -47.2006 1518.75)" stroke="#CD8C2A" stroke-opacity="0.14" stroke-width="2"/>
<circle cx="201.631" cy="1269.92" r="500.365" transform="rotate(-150 201.631 1269.92)" stroke="#CD8C2A" stroke-opacity="0.14" stroke-width="2"/>
<circle cx="367.035" cy="1225.6" r="379.28" transform="rotate(-150 367.035 1225.6)" stroke="#CD8C2A" stroke-opacity="0.14" stroke-width="2"/>
<circle cx="336.022" cy="1233.91" r="401.984" transform="rotate(-150 336.022 1233.91)" stroke="#CD8C2A" stroke-opacity="0.14" stroke-width="2"/>
<circle cx="-47.2007" cy="1624.44" r="425.633" transform="rotate(-45 -47.2007 1624.44)" stroke="#CD8C2A" stroke-opacity="0.14" stroke-width="2"/>
<circle cx="303.716" cy="1242.57" r="425.633" transform="rotate(-150 303.716 1242.57)" stroke="#CD8C2A" stroke-opacity="0.14" stroke-width="2"/>
<circle cx="-47.2003" cy="1592.33" r="448.336" transform="rotate(-45 -47.2003 1592.33)" stroke="#CD8C2A" stroke-opacity="0.14" stroke-width="2"/>
<circle cx="272.703" cy="1250.88" r="448.336" transform="rotate(-150 272.703 1250.88)" stroke="#CD8C2A" stroke-opacity="0.14" stroke-width="2"/>
<circle cx="-47.2006" cy="1563.57" r="468.675" transform="rotate(-45 -47.2006 1563.57)" stroke="#CD8C2A" stroke-opacity="0.14" stroke-width="2"/>
<circle cx="244.921" cy="1258.32" r="468.675" transform="rotate(-150 244.921 1258.32)" stroke="#CD8C2A" stroke-opacity="0.14" stroke-width="2"/>
<circle cx="-47.2005" cy="1536.81" r="487.594" transform="rotate(-45 -47.2005 1536.81)" stroke="#CD8C2A" stroke-opacity="0.14" stroke-width="2"/>
<circle cx="219.076" cy="1265.24" r="487.594" transform="rotate(-150 219.076 1265.24)" stroke="#CD8C2A" stroke-opacity="0.14" stroke-width="2"/>
<circle cx="801.799" cy="-270.249" r="500.365" transform="rotate(-45 801.799 -270.249)" stroke="#CD8C2A" stroke-opacity="0.14" stroke-width="2"/>
<circle cx="1050.63" cy="-519.08" r="500.365" transform="rotate(-150 1050.63 -519.08)" stroke="#CD8C2A" stroke-opacity="0.14" stroke-width="2"/>
<circle cx="801.8" cy="-99.0098" r="379.28" transform="rotate(-45 801.8 -99.0098)" stroke="#CD8C2A" stroke-opacity="0.14" stroke-width="2"/>
<circle cx="801.799" cy="-131.117" r="401.984" transform="rotate(-45 801.799 -131.117)" stroke="#CD8C2A" stroke-opacity="0.14" stroke-width="2"/>
<circle cx="801.799" cy="-164.562" r="425.633" transform="rotate(-45 801.799 -164.562)" stroke="#CD8C2A" stroke-opacity="0.14" stroke-width="2"/>
<circle cx="1152.72" cy="-546.434" r="425.633" transform="rotate(-150 1152.72 -546.434)" stroke="#CD8C2A" stroke-opacity="0.14" stroke-width="2"/>
<circle cx="801.8" cy="-196.67" r="448.336" transform="rotate(-45 801.8 -196.67)" stroke="#CD8C2A" stroke-opacity="0.14" stroke-width="2"/>
<circle cx="1121.7" cy="-538.125" r="448.336" transform="rotate(-150 1121.7 -538.125)" stroke="#CD8C2A" stroke-opacity="0.14" stroke-width="2"/>
<circle cx="801.799" cy="-225.433" r="468.675" transform="rotate(-45 801.799 -225.433)" stroke="#CD8C2A" stroke-opacity="0.14" stroke-width="2"/>
<circle cx="1093.92" cy="-530.68" r="468.675" transform="rotate(-150 1093.92 -530.68)" stroke="#CD8C2A" stroke-opacity="0.14" stroke-width="2"/>
<circle cx="801.799" cy="-252.188" r="487.594" transform="rotate(-45 801.799 -252.188)" stroke="#CD8C2A" stroke-opacity="0.14" stroke-width="2"/>
<circle cx="1068.08" cy="-523.755" r="487.594" transform="rotate(-150 1068.08 -523.755)" stroke="#CD8C2A" stroke-opacity="0.14" stroke-width="2"/>
</g>
<defs>
<clipPath id="clip0_215_5">
<rect width="1440" height="1024" fill="white"/>
</clipPath>
</defs>
</svg>
