<svg width="1440" height="596" viewBox="0 0 1440 596" fill="none" xmlns="http://www.w3.org/2000/svg">
<circle cx="801.799" cy="-270.249" r="500.365" transform="rotate(-45 801.799 -270.249)" stroke="#CD8C2A" stroke-opacity="0.14" stroke-width="2"/>
<circle cx="1050.63" cy="-519.08" r="500.365" transform="rotate(-150 1050.63 -519.08)" stroke="#CD8C2A" stroke-opacity="0.14" stroke-width="2"/>
<circle cx="801.8" cy="-99.0098" r="379.28" transform="rotate(-45 801.8 -99.0098)" stroke="#CD8C2A" stroke-opacity="0.14" stroke-width="2"/>
<circle cx="801.799" cy="-131.117" r="401.984" transform="rotate(-45 801.799 -131.117)" stroke="#CD8C2A" stroke-opacity="0.14" stroke-width="2"/>
<circle cx="801.799" cy="-164.562" r="425.633" transform="rotate(-45 801.799 -164.562)" stroke="#CD8C2A" stroke-opacity="0.14" stroke-width="2"/>
<circle cx="1152.72" cy="-546.434" r="425.633" transform="rotate(-150 1152.72 -546.434)" stroke="#CD8C2A" stroke-opacity="0.14" stroke-width="2"/>
<circle cx="801.8" cy="-196.669" r="448.336" transform="rotate(-45 801.8 -196.669)" stroke="#CD8C2A" stroke-opacity="0.14" stroke-width="2"/>
<circle cx="1121.7" cy="-538.125" r="448.336" transform="rotate(-150 1121.7 -538.125)" stroke="#CD8C2A" stroke-opacity="0.14" stroke-width="2"/>
<circle cx="801.799" cy="-225.433" r="468.675" transform="rotate(-45 801.799 -225.433)" stroke="#CD8C2A" stroke-opacity="0.14" stroke-width="2"/>
<circle cx="1093.92" cy="-530.68" r="468.675" transform="rotate(-150 1093.92 -530.68)" stroke="#CD8C2A" stroke-opacity="0.14" stroke-width="2"/>
<circle cx="801.799" cy="-252.188" r="487.594" transform="rotate(-45 801.799 -252.188)" stroke="#CD8C2A" stroke-opacity="0.14" stroke-width="2"/>
<circle cx="1068.08" cy="-523.755" r="487.594" transform="rotate(-150 1068.08 -523.755)" stroke="#CD8C2A" stroke-opacity="0.14" stroke-width="2"/>
</svg>
