<svg width="56" height="56" viewBox="0 0 56 56" fill="none" xmlns="http://www.w3.org/2000/svg">
<g clip-path="url(#clip0_245_4)">
<path fill-rule="evenodd" clip-rule="evenodd" d="M0.260254 36.4082C0.260254 36.868 0.442915 37.309 0.768053 37.6341C1.09319 37.9593 1.53417 38.1419 1.99399 38.1419H15.8638C16.3237 38.1419 16.7646 37.9593 17.0898 37.6341C17.4149 37.309 17.5976 36.868 17.5976 36.4082C17.5976 35.9484 17.4149 35.5074 17.0898 35.1823C16.7646 34.8571 16.3237 34.6745 15.8638 34.6745H10.6627V5.20102C10.6627 4.7412 10.48 4.30022 10.1549 3.97508C9.82971 3.64995 9.38873 3.46729 8.92892 3.46729C8.4691 3.46729 8.02812 3.64995 7.70298 3.97508C7.37785 4.30022 7.19519 4.7412 7.19519 5.20102V34.6745H1.99399C1.53417 34.6745 1.09319 34.8571 0.768053 35.1823C0.442915 35.5074 0.260254 35.9484 0.260254 36.4082ZM8.92892 41.6094C8.4691 41.6094 8.02812 41.7921 7.70298 42.1172C7.37785 42.4423 7.19519 42.8833 7.19519 43.3431V50.2781C7.19519 50.7379 7.37785 51.1789 7.70298 51.504C8.02812 51.8291 8.4691 52.0118 8.92892 52.0118C9.38873 52.0118 9.82971 51.8291 10.1549 51.504C10.48 51.1789 10.6627 50.7379 10.6627 50.2781V43.3431C10.6627 42.8833 10.48 42.4423 10.1549 42.1172C9.82971 41.7921 9.38873 41.6094 8.92892 41.6094ZM19.3313 19.0709C19.3313 19.5307 19.514 19.9717 19.8391 20.2968C20.1643 20.622 20.6052 20.8046 21.065 20.8046H26.2662V50.2781C26.2662 50.7379 26.4489 51.1789 26.774 51.504C27.0992 51.8291 27.5402 52.0118 28 52.0118C28.4598 52.0118 28.9008 51.8291 29.2259 51.504C29.5511 51.1789 29.7337 50.7379 29.7337 50.2781V20.8046H34.9349C35.3947 20.8046 35.8357 20.622 36.1608 20.2968C36.486 19.9717 36.6686 19.5307 36.6686 19.0709C36.6686 18.6111 36.486 18.1701 36.1608 17.8449C35.8357 17.5198 35.3947 17.3371 34.9349 17.3371H21.065C20.6052 17.3371 20.1643 17.5198 19.8391 17.8449C19.514 18.1701 19.3313 18.6111 19.3313 19.0709ZM28 3.46729C27.5402 3.46729 27.0992 3.64995 26.774 3.97508C26.4489 4.30022 26.2662 4.7412 26.2662 5.20102V12.136C26.2662 12.5958 26.4489 13.0367 26.774 13.3619C27.0992 13.687 27.5402 13.8697 28 13.8697C28.4598 13.8697 28.9008 13.687 29.2259 13.3619C29.5511 13.0367 29.7337 12.5958 29.7337 12.136V5.20102C29.7337 4.7412 29.5511 4.30022 29.2259 3.97508C28.9008 3.64995 28.4598 3.46729 28 3.46729ZM38.4024 36.4082C38.4024 36.868 38.585 37.309 38.9102 37.6341C39.2353 37.9593 39.6763 38.1419 40.1361 38.1419H54.006C54.4658 38.1419 54.9068 37.9593 55.2319 37.6341C55.557 37.309 55.7397 36.868 55.7397 36.4082C55.7397 35.9484 55.557 35.5074 55.2319 35.1823C54.9068 34.8571 54.4658 34.6745 54.006 34.6745H48.8048V5.20102C48.8048 4.7412 48.6221 4.30022 48.297 3.97508C47.9718 3.64995 47.5309 3.46729 47.071 3.46729C46.6112 3.46729 46.1702 3.64995 45.8451 3.97508C45.52 4.30022 45.3373 4.7412 45.3373 5.20102V34.6745H40.1361C39.6763 34.6745 39.2353 34.8571 38.9102 35.1823C38.585 35.5074 38.4024 35.9484 38.4024 36.4082ZM47.071 41.6094C46.6112 41.6094 46.1702 41.7921 45.8451 42.1172C45.52 42.4423 45.3373 42.8833 45.3373 43.3431V50.2781C45.3373 50.7379 45.52 51.1789 45.8451 51.504C46.1702 51.8291 46.6112 52.0118 47.071 52.0118C47.5309 52.0118 47.9718 51.8291 48.297 51.504C48.6221 51.1789 48.8048 50.7379 48.8048 50.2781V43.3431C48.8048 42.8833 48.6221 42.4423 48.297 42.1172C47.9718 41.7921 47.5309 41.6094 47.071 41.6094Z" fill="#CD8C2A"/>
</g>
<defs>
<clipPath id="clip0_245_4">
<rect width="55.4795" height="55.4795" fill="white" transform="translate(0.260254)"/>
</clipPath>
</defs>
</svg>
